<svg xmlns="http://www.w3.org/2000/svg" viewBox="0 0 512 512"><!--! Font Awesome Pro 6.1.1 by @fontawesome - https://fontawesome.com License - https://fontawesome.com/license (Commercial License) Copyright 2022 Fonticons, Inc. -->
<g transform="scale(0.4 0.5) translate(520 50)">
<path d="M503.2 393.8L280.1 44.25c-10.42-16.33-37.73-16.33-48.15 0L8.807 393.8c-11.11 17.41-11.75 39.42-1.666 57.45C17.07 468.1 35.92 480 56.31 480h399.4c20.39 0 39.24-11.03 49.18-28.77C514.9 433.2 514.3 411.2 503.2 393.8zM256 111.8L327.8 224H256L208 288L177.2 235.3L256 111.8z"/>
</g>
<g transform="scale(15 15) translate(2 5)">
<svg xmlns="http://www.w3.org/2000/svg" class="icon icon-tabler icon-tabler-map-2" width="24" height="24" viewBox="0 0 24 24" stroke-width="1.5" stroke="#000000" fill="none" stroke-linecap="round" stroke-linejoin="round">
  <polyline points="10.5 4.75 9 4 3 7 3 20 9 17 15 20 21 17 21 15" />
  <line x1="9" y1="4" x2="9" y2="17" />
  <line x1="15" y1="15" x2="15" y2="20" />
</svg>
  </g>
</svg>