<svg xmlns="http://www.w3.org/2000/svg" viewBox="0 0 448 512"><!--! Font Awesome Pro 6.1.1 by @fontawesome - https://fontawesome.com License - https://fontawesome.com/license (Commercial License) Copyright 2022 Fonticons, Inc. -->
<g transform="scale(0.4 0.4) translate(520 150)">
<path d="M413.8 447.1L256 448l0 31.99C256 497.7 241.8 512 224.1 512c-17.67 0-32.1-14.32-32.1-31.99l0-31.99l-158.9-.0099c-28.5 0-43.69-34.49-24.69-56.4l68.98-79.59H62.22c-25.41 0-39.15-29.8-22.67-49.13l60.41-70.85H89.21c-21.28 0-32.87-22.5-19.28-37.31l134.8-146.5c10.4-11.3 28.22-11.3 38.62-.0033l134.9 146.5c13.62 14.81 2.001 37.31-19.28 37.31h-10.77l60.35 70.86c16.46 19.34 2.716 49.12-22.68 49.12h-15.2l68.98 79.59C458.7 413.7 443.1 447.1 413.8 447.1z"/>
</g>
<g transform="scale(15 15) translate(2 5)">
<svg xmlns="http://www.w3.org/2000/svg" class="icon icon-tabler icon-tabler-map-2" width="24" height="24" viewBox="0 0 24 24" stroke-width="1.5" stroke="#000000" fill="none" stroke-linecap="round" stroke-linejoin="round">
  <polyline points="10.5 4.75 9 4 3 7 3 20 9 17 15 20 21 17 21 15" />
  <line x1="9" y1="4" x2="9" y2="17" />
  <line x1="15" y1="15" x2="15" y2="20" />
</svg>
  </g>
</svg>